<mxfile host="app.diagrams.net" modified="2024-01-23T06:48:47.738Z" agent="Mozilla/5.0 (X11; Linux x86_64) AppleWebKit/537.36 (KHTML, like Gecko) Chrome/120.0.0.0 Safari/537.36" etag="BIJ-MRs5t4pFG-UAjQj7" version="22.1.21" type="github">
  <diagram name="Page-1" id="NGuUZZfhRE70FNxk_y0f">
    <mxGraphModel dx="1050" dy="689" grid="1" gridSize="10" guides="1" tooltips="1" connect="1" arrows="1" fold="1" page="1" pageScale="1" pageWidth="827" pageHeight="1169" math="0" shadow="0">
      <root>
        <mxCell id="0" />
        <mxCell id="1" parent="0" />
        <mxCell id="WeL-BF-_np773IkRgoTs-2" style="edgeStyle=orthogonalEdgeStyle;rounded=0;orthogonalLoop=1;jettySize=auto;html=1;exitX=1;exitY=0.5;exitDx=0;exitDy=0;" edge="1" parent="1" source="WeL-BF-_np773IkRgoTs-1">
          <mxGeometry relative="1" as="geometry">
            <mxPoint x="350" y="210" as="targetPoint" />
          </mxGeometry>
        </mxCell>
        <mxCell id="WeL-BF-_np773IkRgoTs-1" value="SENSORS" style="rounded=1;whiteSpace=wrap;html=1;" vertex="1" parent="1">
          <mxGeometry x="150" y="180" width="120" height="60" as="geometry" />
        </mxCell>
        <mxCell id="WeL-BF-_np773IkRgoTs-19" style="edgeStyle=orthogonalEdgeStyle;rounded=0;orthogonalLoop=1;jettySize=auto;html=1;" edge="1" parent="1" source="WeL-BF-_np773IkRgoTs-3">
          <mxGeometry relative="1" as="geometry">
            <mxPoint x="414" y="300" as="targetPoint" />
          </mxGeometry>
        </mxCell>
        <mxCell id="WeL-BF-_np773IkRgoTs-3" value="NODEMCU" style="rounded=1;whiteSpace=wrap;html=1;" vertex="1" parent="1">
          <mxGeometry x="351" y="180" width="126" height="60" as="geometry" />
        </mxCell>
        <mxCell id="WeL-BF-_np773IkRgoTs-5" value="THINGSPEAK API" style="rounded=0;whiteSpace=wrap;html=1;" vertex="1" parent="1">
          <mxGeometry x="354" y="300" width="120" height="60" as="geometry" />
        </mxCell>
        <mxCell id="WeL-BF-_np773IkRgoTs-20" style="edgeStyle=orthogonalEdgeStyle;rounded=0;orthogonalLoop=1;jettySize=auto;html=1;entryX=1;entryY=0.5;entryDx=0;entryDy=0;" edge="1" parent="1" source="WeL-BF-_np773IkRgoTs-6" target="WeL-BF-_np773IkRgoTs-8">
          <mxGeometry relative="1" as="geometry" />
        </mxCell>
        <mxCell id="WeL-BF-_np773IkRgoTs-6" value="CROP RECOMENDATION FRONTEND" style="rounded=1;whiteSpace=wrap;html=1;" vertex="1" parent="1">
          <mxGeometry x="590" y="440" width="120" height="60" as="geometry" />
        </mxCell>
        <mxCell id="WeL-BF-_np773IkRgoTs-23" style="edgeStyle=orthogonalEdgeStyle;rounded=0;orthogonalLoop=1;jettySize=auto;html=1;entryX=0.5;entryY=1;entryDx=0;entryDy=0;" edge="1" parent="1" source="WeL-BF-_np773IkRgoTs-8" target="WeL-BF-_np773IkRgoTs-5">
          <mxGeometry relative="1" as="geometry" />
        </mxCell>
        <mxCell id="WeL-BF-_np773IkRgoTs-8" value="&lt;span style=&quot;color: rgb(0, 0, 0); font-family: Helvetica; font-size: 12px; font-style: normal; font-variant-ligatures: normal; font-variant-caps: normal; font-weight: 400; letter-spacing: normal; orphans: 2; text-align: center; text-indent: 0px; text-transform: none; widows: 2; word-spacing: 0px; -webkit-text-stroke-width: 0px; background-color: rgb(251, 251, 251); text-decoration-thickness: initial; text-decoration-style: initial; text-decoration-color: initial; float: none; display: inline !important;&quot;&gt;CROP RECOMMENDATION BACKEND&lt;/span&gt;" style="rounded=1;whiteSpace=wrap;html=1;" vertex="1" parent="1">
          <mxGeometry x="337" y="440" width="154" height="60" as="geometry" />
        </mxCell>
        <mxCell id="WeL-BF-_np773IkRgoTs-10" value="POST" style="text;html=1;strokeColor=none;fillColor=none;align=center;verticalAlign=middle;whiteSpace=wrap;rounded=0;" vertex="1" parent="1">
          <mxGeometry x="500" y="480" width="60" height="30" as="geometry" />
        </mxCell>
        <mxCell id="WeL-BF-_np773IkRgoTs-11" value="Internet" style="text;html=1;strokeColor=none;fillColor=none;align=center;verticalAlign=middle;whiteSpace=wrap;rounded=0;" vertex="1" parent="1">
          <mxGeometry x="414" y="250" width="60" height="30" as="geometry" />
        </mxCell>
        <mxCell id="WeL-BF-_np773IkRgoTs-24" value="GET" style="text;html=1;strokeColor=none;fillColor=none;align=center;verticalAlign=middle;whiteSpace=wrap;rounded=0;" vertex="1" parent="1">
          <mxGeometry x="414" y="390" width="60" height="30" as="geometry" />
        </mxCell>
      </root>
    </mxGraphModel>
  </diagram>
</mxfile>
